<?xml version="1.0" encoding="UTF-8"?>
<svg id="Layer_1" data-name="Layer 1" xmlns="http://www.w3.org/2000/svg" viewBox="0 0 1080 1080">
  <defs>
    <style>
      .cls-1, .cls-2 {
        fill: #fff;
      }

      .cls-3 {
        fill: #fcfafa;
      }

      .cls-3, .cls-4, .cls-2, .cls-5 {
        fill-rule: evenodd;
      }

      .cls-4, .cls-6 {
        fill: #ffa900;
      }
    </style>
  </defs>
  <path class="cls-1" d="M522.66,384.83c1.51-6.85,2.26-14.72,2.26-23.61,0-9.64-1.84-18.75-5.53-27.33-4.14-9.64-9.48-14.46-16.03-14.46-4.06,0-7.11,1.58-9.14,4.74-2.56,3.99-3.84,8.92-3.84,14.8,0,4.29,.68,8.81,2.03,13.55,1.5,5.57,3.91,10.86,7.22,15.87,3.31,5.01,7.53,9.09,12.64,12.25,3.09,2.03,6.55,3.43,10.39,4.18m-27.43,30.27c9.94,0,17.68-5.95,23.26-17.85,.68-1.51,1.32-3.09,1.92-4.75-4.59-.98-8.77-2.67-12.53-5.08-6.32-4.07-11.53-9.24-15.64-15.53-4.1-6.29-6.88-12.44-8.35-18.47-1.47-6.02-2.2-11.3-2.2-15.81,0-6.25,1.02-11.6,3.05-16.04-2.78,2.26-5.08,5.16-6.88,8.69-5.04,9.79-7.57,22.29-7.57,37.5,0,7.98,.92,15.59,2.77,22.81,1.84,7.23,4.61,13.12,8.3,17.68,3.69,4.55,8.32,6.83,13.88,6.83Zm-2.14,8.81c-9.56,0-17.38-2.69-23.48-8.08-6.1-5.38-10.59-12.46-13.49-21.24-2.9-8.77-4.34-18.39-4.34-28.86,0-7.98,1.15-16.19,3.44-24.62,2.3-8.44,6.15-15.7,11.57-21.8,5.72-6.4,12.42-9.6,20.09-9.6,3.08,0,5.75,.56,8.01,1.69,2.18-.83,4.63-1.24,7.34-1.24,11.14,0,19.57,6.1,25.29,18.3,4.59,9.71,6.88,20.63,6.88,32.75,0,8.81-.94,16.91-2.82,24.28,4.59-.3,8.69-1.66,12.3-4.07,7.75-5.35,12.61-13.44,14.56-24.28,.38-2.11,1.66-3.16,3.84-3.16,2.71,0,4.07,1.32,4.07,3.95,0,.83-.3,2.37-.9,4.63-3.01,11.6-8.96,20.25-17.84,25.98-5.04,3.31-10.91,4.97-17.61,4.97h-.91c-.9,2.49-1.96,4.86-3.16,7.11-7.83,15.51-18.77,23.27-32.85,23.27Z"/>
  <path class="cls-1" d="M557.31,369.47c0-13.85,3.54-26.96,10.61-39.31,7.83-13.63,18.1-20.44,30.82-20.44,7.52,0,13.62,2,18.28,5.99,5.49,4.74,8.24,10.92,8.24,18.52,0,5.42-1.69,11.14-5.08,17.17-2.78,4.97-5.53,7.45-8.24,7.45-1.13,0-2.15-.4-3.05-1.19-.9-.79-1.36-1.83-1.36-3.11,0-2.26,1.13-4.71,3.39-7.34,3.46-4.07,5.19-8.92,5.19-14.57,0-4.97-1.47-8.92-4.4-11.86-2.11-2.11-4.97-3.16-8.58-3.16-8.95,0-15.95,6.1-21,18.3-4.36,10.39-6.55,21.95-6.55,34.67,0,10.39,1.24,18.94,3.73,25.64,4.21,11.15,10.69,16.72,19.42,16.72,15.12,0,27.76-11.41,37.93-34.22,3.08-6.85,5.23-14.04,6.43-21.57,.3-2.11,1.58-3.16,3.84-3.16,2.71,0,4.06,1.32,4.06,3.95,0,.45-.11,1.32-.34,2.6-1.21,7.15-3.31,14.12-6.32,20.9-11.97,28.54-27.28,42.81-45.94,42.81-14.3,0-25.17-6.1-32.62-18.3-5.64-9.18-8.47-21.35-8.47-36.48"/>
  <path class="cls-1" d="M640.85,369.47c0-13.85,3.53-26.96,10.61-39.31,7.83-13.63,18.1-20.44,30.82-20.44,7.52,0,13.62,2,18.29,5.99,5.49,4.74,8.24,10.92,8.24,18.52,0,12.73-6.47,22.14-19.42,28.24-7.68,3.69-17.76,5.72-30.25,6.1v2.03c0,10.39,1.24,18.94,3.73,25.64,4.21,11.15,10.69,16.72,19.41,16.72,15.13,0,27.77-11.41,37.93-34.22,3.08-6.85,5.23-14.04,6.43-21.57,.3-2.11,1.58-3.16,3.84-3.16,2.71,0,4.06,1.32,4.06,3.95,0,.45-.11,1.32-.34,2.6-1.21,7.15-3.31,14.12-6.32,20.9-11.96,28.54-27.28,42.81-45.94,42.81-14.3,0-25.17-6.1-32.62-18.3-5.64-9.18-8.46-21.35-8.46-36.48m18.74-8.81c11.36-.45,20.32-2.56,26.86-6.33,8.81-5.12,13.21-12.35,13.21-21.69,0-4.97-1.47-8.92-4.4-11.86-2.11-2.11-4.97-3.16-8.58-3.16-8.96,0-15.95,6.1-20.99,18.3-3.24,7.61-5.27,15.85-6.1,24.74Z"/>
  <path class="cls-2" d="M423.78,435.18c-13.77-1.99-26.28-3.1-37.65-3.51-19.13-.69-34.95,.65-48.05,3.36-8.42,2.17-15.23,7.48-19.51,14.35-4.27,6.86-5.97,15.32-4.19,23.82,1.76,8.46,6.71,15.46,13.33,20.01,6.59,4.53,14.87,6.58,23.41,5.17,3.55-.56,6.98-1.35,10.29-2.3,3.44-.99,6.76-2.17,9.97-3.45,18.41-8.03,33.3-21.43,43.28-37.8,3.76-6.16,6.82-12.74,9.11-19.63m-89.98-107.14c-4.3-6.35-8.43-14-10.02-21.68-2.33-11.24,.02-22.52,11.9-31.21,4.56-3.34,9.89-5.22,15.31-5.62,5.43-.41,10.98,.7,16,3.33l.22,.12c13.3,7.5,37.21,23.8,55.22,52.28,11.79,18.65,21.05,42.51,23.16,72.55,.6,9.05,.1,17.99-1.41,26.66,19.75,3.13,79.93,12.39,139.27,18.6,35.93,3.76,71.53,6.43,97.59,5.85,12.28-.33,24.17-3.34,34.91-8.69,10.79-5.37,20.43-13.06,28.13-22.68,7.73-9.76,13.35-21.17,10.09-32.7-2.48-8.74-9.93-17.36-24.65-25.45-1.4-.75-1.92-2.49-1.18-3.88,.75-1.4,2.49-1.92,3.88-1.17,16.92,8.82,25.24,18.77,28.27,28.64,4.17,13.57-1.62,27.38-10.54,39.15-8.21,10.71-18.58,19.33-30.26,25.44-11.73,6.14-24.78,9.73-38.34,10.38-26.39,1.13-62.5-.77-98.95-3.87-60.81-5.17-122.54-13.6-141.4-16.26-2.77,9.15-6.69,17.88-11.64,25.98-11.82,19.34-29.5,35.1-51.29,44.52l-.25,.11c-3.8,1.48-7.73,2.83-11.81,3.96-3.98,1.1-8.09,2.01-12.29,2.63-12.91,2-25.47-1.23-35.43-8.21-9.93-6.96-17.3-17.59-19.83-30.38-2.49-12.75,.21-25.35,6.75-35.51,6.51-10.12,16.74-17.85,29.31-20.85l.33-.07c11.74-2.26,25.49-3.54,41.6-3.3,14.83,.23,31.69,1.74,50.77,4.9,1.3-7.36,1.74-14.96,1.25-22.64-1.77-26.75-9.9-48.04-20.32-64.71-15.9-25.45-37.05-40.15-48.91-46.96-2.23-1.17-4.69-1.68-7.11-1.52-2.47,.16-4.89,.99-6.98,2.49-5.74,4.13-6.83,9.56-5.76,14.97,2.9,14.75,17.93,29.3,17.93,29.3,2.44,2.38,3.04,6.07,1.48,9.09-1.56,3.03-4.92,4.68-8.26,4.06-26.06-4.92-40.95-2.98-49.24,2.61-12.64,8.52-6.52,25.18-6.52,25.18l.18,.61c3.95,16.01,15.92,20.99,29.53,21.06,29.59,.15,66.47-20.52,66.47-20.52,3.05-1.73,6.93-.65,8.65,2.41,1.72,3.05,.65,6.93-2.4,8.65,0,0-40.24,22.92-72.7,23.2-20.07,.17-37.29-7.66-43.47-31.14-1.13-3.77-7.56-28.25,11.89-41.7,7.85-5.42,20.54-9.22,40.85-7.98Z"/>
  <path class="cls-6" d="M473.06,272.9v-4.11c0-1.04-.67-1.86-2.03-2.47-1.35-.61-3.03-.91-5.04-.91-.94,0-1.94,.18-3.01,.55-1.07,.36-2.08,1.03-3.01,2-.93,.97-1.71,2.3-2.31,4-.61,1.7-.91,3.87-.91,6.5,0,1.67,.17,3.27,.52,4.81,.35,1.54,.89,2.9,1.64,4.08,.74,1.18,1.7,2.11,2.86,2.81,1.16,.69,2.57,1.04,4.24,1.04,.76,0,1.57-.06,2.42-.18,.85-.12,1.61-.33,2.29-.62,.67-.29,1.24-.68,1.69-1.17,.45-.49,.67-1.09,.67-1.82v-3.69h8v4.06c0,1.63-.42,3.07-1.27,4.34-.85,1.26-1.98,2.33-3.38,3.2-1.4,.86-3.02,1.52-4.86,1.97-1.84,.45-3.74,.68-5.72,.68-2.49,0-4.78-.42-6.86-1.25-2.08-.83-3.87-2.07-5.38-3.72-1.51-1.65-2.68-3.69-3.53-6.13s-1.27-5.28-1.27-8.5,.44-6.12,1.32-8.58c.88-2.46,2.1-4.51,3.64-6.16,1.54-1.65,3.36-2.89,5.46-3.72,2.09-.83,4.34-1.25,6.73-1.25s4.37,.29,6.26,.86c1.89,.57,3.51,1.33,4.86,2.29,1.35,.95,2.41,2.03,3.17,3.25,.76,1.21,1.14,2.46,1.14,3.74v4.11h-8.31Z"/>
  <path class="cls-6" d="M504.29,283.14c0-.87-.09-1.79-.26-2.78-.17-.98-.49-1.9-.96-2.73-.47-.83-1.14-1.53-2.03-2.08-.88-.56-2.02-.83-3.4-.83s-2.56,.27-3.43,.83-1.53,1.25-2,2.08c-.47,.83-.79,1.74-.96,2.73-.17,.99-.26,1.92-.26,2.78s.09,1.84,.26,2.83c.17,.99,.5,1.9,.96,2.73,.47,.83,1.13,1.52,2,2.05,.87,.53,2.01,.81,3.43,.81s2.52-.27,3.4-.81c.88-.54,1.56-1.22,2.03-2.05,.47-.83,.79-1.74,.96-2.73,.18-.99,.26-1.93,.26-2.83m7.79,6.24c0,.31,.13,.61,.39,.91,.26,.29,.54,.44,.86,.44h1.87v6.24h-6.18c-.35,0-.74-.09-1.17-.26-.43-.18-.83-.42-1.19-.73-.36-.31-.67-.68-.91-1.12-.24-.43-.37-.91-.37-1.43v-.73c-.83,1.56-2.03,2.78-3.58,3.67-1.56,.88-3.26,1.33-5.09,1.33s-3.6-.29-5.2-.86c-1.59-.57-2.99-1.46-4.18-2.65-1.2-1.2-2.13-2.71-2.81-4.55-.68-1.84-1.01-4-1.01-6.5s.39-4.65,1.17-6.47c.78-1.82,1.82-3.33,3.12-4.52,1.3-1.2,2.8-2.09,4.5-2.68,1.7-.59,3.48-.89,5.35-.89,.69,0,1.42,.09,2.18,.26,.76,.17,1.49,.42,2.18,.73,.69,.31,1.34,.69,1.95,1.12,.61,.44,1.1,.89,1.48,1.38v-2.5h6.65v19.81Z"/>
  <path class="cls-6" d="M520.35,276.96c0-.35-.14-.67-.42-.96-.28-.29-.59-.44-.94-.44h-1.77v-6.24h5.61c.48,0,.99,.1,1.53,.31,.53,.21,1.02,.49,1.45,.86,.43,.36,.79,.78,1.07,1.25,.28,.47,.41,.94,.41,1.43v.94h.1c.38-.69,.78-1.37,1.2-2.03,.42-.66,.92-1.25,1.51-1.77,.59-.52,1.27-.94,2.05-1.25,.78-.31,1.72-.47,2.83-.47,.24,0,.47,.01,.7,.03,.22,.02,.46,.04,.7,.08v7.38c-.31-.07-.65-.1-1.01-.1h-1.06c-1.42,0-2.56,.2-3.43,.6-.87,.4-1.54,.92-2.02,1.56-.49,.64-.81,1.35-.99,2.13-.17,.78-.26,1.55-.26,2.31v14.4h-7.27v-20.01Z"/>
  <path class="cls-6" d="M538.48,261.67c0-1.25,.43-2.31,1.3-3.17,.87-.87,1.9-1.3,3.12-1.3s2.3,.43,3.17,1.3c.87,.87,1.3,1.92,1.3,3.17s-.43,2.25-1.3,3.12c-.87,.87-1.92,1.3-3.17,1.3s-2.25-.43-3.12-1.3c-.87-.87-1.3-1.91-1.3-3.12m2.29,15.29c0-.35-.14-.67-.42-.96-.28-.29-.59-.44-.94-.44h-1.77v-6.24h5.98c.76,0,1.42,.13,1.98,.39,.55,.26,1.01,.6,1.38,1.01,.36,.42,.63,.89,.8,1.41,.17,.52,.26,1.06,.26,1.61v14.66c0,.28,.15,.56,.44,.86,.3,.29,.58,.44,.86,.44h1.82v7.28h-5.92c-.55,0-1.1-.18-1.64-.54s-1.01-.81-1.43-1.35c-.42-.54-.75-1.14-1.01-1.82-.26-.68-.39-1.32-.39-1.95v-14.35Z"/>
  <path class="cls-6" d="M556.41,277.11c0-.35-.15-.69-.44-1.04-.29-.35-.62-.52-.96-.52h-1.71v-6.24h6.81c.42,0,.81,.11,1.19,.34,.38,.22,.73,.51,1.04,.86,.31,.35,.56,.73,.76,1.15,.19,.42,.29,.83,.29,1.25v.94c.21-.42,.52-.93,.94-1.53,.42-.61,.96-1.19,1.64-1.74,.67-.55,1.49-1.02,2.44-1.4,.95-.38,2.09-.57,3.4-.57s2.61,.2,3.79,.6c1.18,.4,2.19,.99,3.04,1.77,.85,.78,1.52,1.74,2.03,2.89,.5,1.14,.75,2.48,.75,4v11.34c0,.35,.14,.69,.42,1.04,.28,.35,.59,.52,.93,.52h1.77v6.24h-5.87c-.59,0-1.15-.17-1.69-.49-.54-.33-1.01-.74-1.43-1.25-.42-.5-.75-1.06-1.01-1.69-.26-.63-.39-1.23-.39-1.82v-11.54c0-.52-.03-1.09-.08-1.72-.05-.62-.23-1.21-.55-1.77-.31-.55-.79-1.02-1.43-1.4-.64-.38-1.53-.57-2.68-.57-1.63,0-2.99,.54-4.08,1.61-1.09,1.08-1.64,2.67-1.64,4.78v10.66c0,.59-.13,1.19-.39,1.79-.26,.61-.61,1.16-1.04,1.66-.43,.5-.93,.92-1.48,1.25-.56,.33-1.11,.49-1.66,.49h-5.82v-6.24h1.71c.35,0,.67-.15,.96-.47,.29-.31,.44-.64,.44-.99v-12.17Z"/>
  <path class="cls-6" d="M615.12,289.33c0,.35,.14,.67,.42,.96,.28,.29,.59,.44,.93,.44h1.77v6.24h-6.65c-.45,0-.89-.1-1.32-.31-.43-.21-.83-.51-1.2-.91-.36-.4-.66-.87-.88-1.4-.22-.54-.34-1.12-.34-1.74v-11.39c0-.52-.03-1.09-.08-1.72-.05-.62-.24-1.21-.55-1.77-.31-.56-.79-1.03-1.43-1.41-.64-.38-1.53-.57-2.68-.57-1.63,0-2.99,.54-4.08,1.61-1.09,1.08-1.64,2.67-1.64,4.78v10.45c0,.45-.15,.94-.44,1.45-.3,.52-.67,1-1.12,1.43-.45,.43-.94,.79-1.46,1.07-.52,.28-1,.41-1.45,.41h-5.92v-6.24h1.71c.31,0,.62-.14,.94-.42,.31-.27,.47-.57,.47-.88v-22.15c0-.35-.15-.67-.44-.96-.29-.29-.61-.44-.96-.44h-1.71v-6.24h5.72c.66,0,1.27,.16,1.84,.49,.57,.33,1.07,.75,1.48,1.27,.41,.52,.74,1.08,.99,1.69,.24,.61,.36,1.19,.36,1.74v9.1h.1c.24-.55,.61-1.1,1.09-1.64,.49-.54,1.07-1,1.77-1.38,.69-.38,1.47-.69,2.34-.93,.87-.24,1.8-.36,2.81-.36,1.35,0,2.61,.2,3.79,.6,1.18,.4,2.19,.99,3.04,1.77,.85,.78,1.52,1.74,2.02,2.89,.5,1.14,.75,2.48,.75,4v10.45Z"/>
  <path class="cls-6" d="M640.58,283.14c0-.87-.09-1.79-.26-2.78-.17-.98-.49-1.9-.96-2.73-.47-.83-1.14-1.53-2.03-2.08-.88-.56-2.02-.83-3.4-.83s-2.56,.27-3.43,.83c-.87,.56-1.53,1.25-2,2.08-.47,.83-.79,1.74-.96,2.73-.17,.99-.26,1.92-.26,2.78s.09,1.84,.26,2.83c.17,.99,.49,1.9,.96,2.73,.47,.83,1.13,1.52,2,2.05,.87,.53,2.01,.81,3.43,.81s2.52-.27,3.4-.81c.88-.54,1.56-1.22,2.03-2.05,.47-.83,.79-1.74,.96-2.73,.17-.99,.26-1.93,.26-2.83m7.48,0c0,2.5-.39,4.66-1.17,6.5-.78,1.84-1.82,3.35-3.12,4.55-1.3,1.19-2.8,2.08-4.5,2.65-1.7,.57-3.48,.86-5.35,.86s-3.66-.29-5.35-.86c-1.7-.57-3.2-1.46-4.49-2.65-1.3-1.2-2.34-2.71-3.12-4.55-.78-1.84-1.17-4-1.17-6.5s.39-4.65,1.17-6.47c.78-1.82,1.82-3.33,3.12-4.52,1.3-1.2,2.8-2.09,4.49-2.68,1.7-.59,3.48-.89,5.35-.89s3.65,.29,5.35,.89c1.69,.59,3.19,1.48,4.5,2.68,1.3,1.2,2.34,2.7,3.12,4.52,.78,1.82,1.17,3.98,1.17,6.47Z"/>
  <path class="cls-4" d="M579.56,460.26l-9.25,75.05-21.15-.1-.74-73.7c10.11-.66,20.54-1.11,31.14-1.25m68.51,4.17c9.57,1.43,18.97,3.28,28.09,5.6l-28.32,71.08-21.37-5.81,21.6-70.88Zm-147.21,1.85v81.75h-18.45l-18.19-75.94c9.99-1.84,22.46-3.91,36.64-5.8Zm-81.37,33.82c9.06,26.13,22.94,66.66,25.2,76.4,0,0,246.81-63.01,209.61,28.37,0,0-84.08-44.79-227.39-.49l-36.62-89.2c9.95-3.63,20.34-8.54,29.19-15.09Z"/>
  <path class="cls-1" d="M453.58,638.01c-.64,.07-1.21,.11-1.71,.11-.59,0-1.32-.06-2.17-.17-.85-.11-1.76-.34-2.71-.69-.95-.35-1.9-.84-2.84-1.47-.94-.63-1.79-1.47-2.55-2.51-.76-1.04-1.37-2.32-1.84-3.83-.47-1.51-.71-3.31-.71-5.39s.24-3.88,.71-5.39c.47-1.51,1.08-2.79,1.84-3.83,.76-1.04,1.6-1.88,2.55-2.51,.94-.63,1.89-1.12,2.84-1.47,.96-.35,1.86-.58,2.71-.69,.86-.11,1.58-.17,2.17-.17s1.32,.05,2.17,.17c.85,.11,1.76,.34,2.71,.69,.95,.34,1.9,.83,2.84,1.47,.94,.63,1.79,1.47,2.54,2.51,.76,1.04,1.37,2.32,1.84,3.83,.47,1.51,.71,3.3,.71,5.39,0,1.83-.19,3.44-.56,4.81-.37,1.37-.86,2.57-1.47,3.58-.61,1.02-1.3,1.87-2.08,2.55-.78,.68-1.59,1.23-2.43,1.65,.3,.3,.6,.52,.89,.67,.3,.15,.57,.25,.82,.32,.25,.06,.45,.09,.61,.09h2.95v4.46h-3.75c-1.54,0-2.81-.34-3.82-1-1.02-.67-1.68-1.47-2.01-2.42l-.26-.78Zm2.93-6.35c.74-.69,1.36-1.65,1.86-2.86,.49-1.21,.74-2.79,.74-4.72s-.23-3.39-.71-4.61c-.47-1.21-1.06-2.17-1.78-2.86-.72-.69-1.5-1.18-2.36-1.45-.86-.27-1.65-.41-2.4-.41s-1.54,.14-2.4,.41c-.85,.27-1.64,.76-2.36,1.45-.72,.69-1.31,1.65-1.78,2.86-.47,1.21-.71,2.75-.71,4.61s.24,3.4,.71,4.61c.47,1.21,1.07,2.17,1.8,2.86,.73,.69,1.52,1.17,2.36,1.45,.84,.27,1.64,.41,2.38,.41h.26c-.15-.42-.31-.89-.48-1.41l-1-3.01,4.61-1.15,1.26,3.83Z"/>
  <path class="cls-1" d="M486.26,631.88c0,.27,.11,.52,.33,.74,.22,.22,.47,.33,.74,.33h1.15v4.46h-4.38c-.22,0-.5-.05-.82-.15-.32-.1-.63-.25-.93-.46-.3-.21-.55-.48-.76-.82-.21-.33-.32-.74-.32-1.21v-.78c-.47,1.21-1.25,2.17-2.36,2.88-1.1,.71-2.35,1.06-3.73,1.06-.97,0-1.86-.14-2.69-.43-.83-.28-1.54-.72-2.13-1.32-.59-.59-1.06-1.35-1.39-2.27-.34-.92-.5-2.01-.5-3.27v-7.54c0-.22-.1-.45-.3-.67-.2-.22-.41-.33-.63-.33h-1.3v-4.46h4.53c.5,.05,.92,.18,1.28,.39,.36,.21,.66,.48,.91,.8,.25,.32,.43,.67,.54,1.04,.11,.37,.17,.74,.17,1.11v8.92c0,.77,.1,1.39,.3,1.86,.2,.47,.46,.84,.78,1.1,.32,.26,.69,.44,1.1,.54,.41,.1,.81,.15,1.21,.15,.42,0,.87-.07,1.34-.2,.47-.14,.9-.38,1.3-.73,.4-.35,.72-.81,.98-1.37,.26-.57,.39-1.3,.39-2.19v-5.91c0-.22-.1-.45-.3-.69-.2-.24-.41-.35-.63-.35h-1.3v-4.46h4.42c.79,0,1.49,.31,2.1,.93,.61,.62,.91,1.45,.91,2.49v10.81Z"/>
  <path class="cls-1" d="M503.46,625.56c-.08-.79-.25-1.46-.52-1.99-.27-.53-.6-.96-.97-1.28-.37-.32-.78-.55-1.23-.69-.44-.14-.88-.2-1.3-.2-1.24,0-2.18,.36-2.84,1.09-.66,.73-1.06,1.75-1.21,3.07h8.06Zm5.12,6.06c-.35,1.19-.84,2.19-1.47,2.99-.63,.81-1.34,1.46-2.14,1.95-.79,.5-1.63,.85-2.51,1.06-.88,.21-1.74,.32-2.58,.32-1.39,0-2.68-.18-3.88-.54-1.2-.36-2.24-.96-3.12-1.8-.88-.84-1.57-1.96-2.08-3.34-.51-1.39-.76-3.1-.76-5.13,0-.4,.03-.92,.09-1.56,.06-.64,.21-1.34,.43-2.08,.22-.74,.54-1.49,.96-2.25,.42-.76,.99-1.44,1.69-2.04,.7-.61,1.57-1.1,2.6-1.49,1.03-.38,2.26-.58,3.7-.58,.96,0,1.99,.14,3.08,.43,1.09,.29,2.09,.83,3.01,1.63,.92,.8,1.68,1.91,2.28,3.33,.61,1.41,.91,3.24,.91,5.5v.93h-13.56c.03,.37,.09,.83,.18,1.37,.1,.54,.31,1.08,.61,1.6,.31,.52,.77,.96,1.38,1.32,.61,.36,1.43,.54,2.47,.54,.72,0,1.4-.18,2.06-.54,.66-.36,1.08-.9,1.28-1.62h5.35Z"/>
  <path class="cls-1" d="M512.41,623.11c0-.25-.1-.48-.3-.69-.2-.21-.42-.32-.67-.32h-1.26v-4.46h4.01c.35,0,.71,.07,1.1,.22,.38,.15,.73,.35,1.04,.61,.31,.26,.56,.56,.76,.89,.2,.33,.3,.68,.3,1.02v.67h.08c.27-.5,.56-.98,.85-1.45,.3-.47,.66-.89,1.08-1.26,.42-.37,.91-.67,1.47-.89,.55-.22,1.23-.33,2.02-.33,.17,0,.34,0,.5,.02,.16,.01,.33,.03,.5,.05v5.28c-.22-.05-.46-.07-.72-.07h-.76c-1.01,0-1.83,.14-2.45,.43-.62,.28-1.1,.65-1.45,1.11-.35,.46-.58,.97-.7,1.53-.12,.56-.19,1.11-.19,1.65v10.29h-5.2v-14.31Z"/>
  <path class="cls-1" d="M563.32,631.7c0,.32,.16,.61,.48,.87,.32,.26,.64,.39,.97,.39h1.89v4.46h-4.08c-.52,0-1.05-.14-1.58-.41-.53-.27-1.02-.62-1.45-1.04-.43-.42-.78-.9-1.04-1.45-.26-.54-.39-1.08-.39-1.6v-15.94h-.08l-4.98,20.44h-5.46l-4.86-20.44h-.07v15.94c0,.52-.13,1.05-.39,1.6-.26,.55-.61,1.03-1.04,1.45-.43,.42-.92,.77-1.45,1.04-.53,.27-1.06,.41-1.58,.41h-4.09v-4.46h1.9c.32,0,.64-.13,.97-.39,.32-.26,.48-.55,.48-.87v-20.96h8.13l4.83,18.43h.07l4.75-18.43h8.06v20.96Z"/>
  <path class="cls-1" d="M583.16,627.53c0-.62-.06-1.28-.19-1.99-.12-.71-.35-1.35-.69-1.95-.33-.59-.82-1.09-1.45-1.49-.63-.4-1.44-.59-2.44-.59s-1.83,.2-2.45,.59c-.62,.4-1.1,.89-1.43,1.49-.33,.6-.56,1.24-.69,1.95-.12,.71-.18,1.37-.18,1.99s.06,1.32,.18,2.02c.12,.71,.35,1.36,.69,1.95,.33,.59,.81,1.08,1.43,1.47,.62,.39,1.44,.58,2.45,.58s1.8-.19,2.44-.58c.63-.38,1.11-.87,1.45-1.47,.33-.59,.56-1.25,.69-1.95,.13-.71,.19-1.38,.19-2.02m5.57,4.46c0,.22,.09,.44,.28,.65,.18,.21,.39,.31,.61,.31h1.34v4.46h-4.42c-.25,0-.53-.06-.84-.19-.31-.13-.59-.3-.85-.52-.26-.23-.48-.49-.65-.8-.17-.31-.26-.65-.26-1.02v-.52c-.59,1.12-1.45,1.99-2.57,2.62-1.11,.63-2.33,.95-3.64,.95s-2.57-.21-3.71-.61c-1.14-.41-2.14-1.04-2.99-1.9-.85-.86-1.52-1.94-2.01-3.25-.48-1.31-.73-2.86-.73-4.64s.28-3.32,.84-4.62c.56-1.3,1.3-2.38,2.23-3.23,.93-.85,2-1.49,3.21-1.91,1.21-.42,2.49-.63,3.82-.63,.5,0,1.02,.06,1.56,.19,.54,.12,1.06,.3,1.56,.52,.5,.22,.96,.49,1.39,.8,.43,.31,.79,.64,1.06,.98v-1.78h4.76v14.16Z"/>
  <path class="cls-1" d="M592.85,612.19c0-.89,.31-1.65,.93-2.27,.62-.62,1.36-.93,2.23-.93s1.65,.31,2.27,.93c.62,.62,.93,1.38,.93,2.27s-.31,1.61-.93,2.23c-.62,.62-1.38,.93-2.27,.93s-1.61-.31-2.23-.93c-.62-.62-.93-1.36-.93-2.23m1.63,10.92c0-.25-.1-.48-.3-.69-.2-.21-.42-.32-.67-.32h-1.26v-4.46h4.27c.54,0,1.02,.09,1.41,.28,.39,.19,.72,.43,.98,.72,.26,.3,.45,.63,.58,1,.12,.37,.19,.76,.19,1.15v10.48c0,.2,.11,.4,.32,.61,.21,.21,.42,.32,.61,.32h1.3v5.2h-4.23c-.4,0-.79-.13-1.17-.39-.38-.26-.72-.58-1.02-.97-.3-.38-.54-.82-.72-1.3-.19-.48-.28-.95-.28-1.39v-10.26Z"/>
  <path class="cls-1" d="M615.43,624.41v-1.3c0-.57-.26-1.05-.78-1.45-.52-.4-1.39-.59-2.6-.59-.72,0-1.29,.06-1.71,.19-.42,.12-.74,.28-.96,.46-.22,.19-.37,.39-.43,.62-.06,.22-.09,.45-.09,.67,0,.52,.3,.92,.91,1.19,.61,.27,1.37,.51,2.28,.71,.92,.2,1.92,.4,2.99,.61,1.08,.21,2.07,.53,2.99,.97,.92,.43,1.68,1.02,2.29,1.75,.6,.73,.91,1.7,.91,2.92,0,1.44-.3,2.6-.91,3.49-.61,.89-1.36,1.58-2.25,2.06-.89,.48-1.84,.81-2.84,.99-1,.17-1.89,.26-2.66,.26-1.02,0-2.07-.08-3.17-.24-1.1-.16-2.11-.44-3.01-.84-.9-.4-1.65-.94-2.25-1.64-.59-.69-.89-1.56-.89-2.6v-1.9h5.54v1.82c0,.52,.38,.89,1.13,1.11,.76,.22,1.69,.33,2.8,.33,.67,0,1.22-.07,1.65-.22,.43-.15,.77-.32,1-.52,.23-.2,.4-.42,.5-.65,.1-.23,.15-.45,.15-.65,0-.54-.3-.96-.91-1.24-.61-.29-1.36-.53-2.27-.73-.9-.2-1.89-.4-2.95-.61-1.07-.21-2.05-.53-2.95-.94-.9-.42-1.66-1-2.27-1.73-.61-.73-.91-1.72-.91-2.96,0-.72,.12-1.47,.37-2.25,.25-.78,.68-1.49,1.3-2.14,.62-.64,1.44-1.17,2.47-1.6,1.03-.42,2.31-.63,3.84-.63,.91,0,1.89,.07,2.93,.2,1.04,.14,1.99,.42,2.86,.84,.87,.42,1.58,1.02,2.16,1.78,.57,.77,.85,1.78,.85,3.05v1.41h-5.13Z"/>
  <path class="cls-1" d="M628.5,634.3c0-.84,.3-1.56,.89-2.16,.59-.59,1.31-.89,2.15-.89,.45,0,.86,.08,1.23,.24,.37,.16,.7,.38,.98,.65,.28,.27,.51,.59,.67,.97,.16,.37,.24,.77,.24,1.19,0,.87-.3,1.6-.91,2.21-.6,.61-1.34,.91-2.21,.91-.42,0-.81-.08-1.19-.24-.37-.16-.69-.38-.97-.67-.27-.28-.49-.61-.65-.98-.16-.37-.24-.78-.24-1.23m.59-4.61c0-.89,.04-1.67,.11-2.34,.07-.67,.24-1.29,.5-1.86,.26-.57,.64-1.12,1.13-1.65,.49-.53,1.18-1.1,2.04-1.69,.72-.5,1.28-1.04,1.69-1.64,.41-.59,.61-1.28,.61-2.04,0-.72-.12-1.31-.35-1.78-.24-.47-.53-.85-.87-1.13-.34-.28-.73-.48-1.15-.6-.42-.11-.83-.17-1.23-.17-.84,0-1.51,.14-2.02,.43-.51,.28-.9,.64-1.17,1.06-.27,.42-.46,.88-.57,1.37-.11,.5-.19,.97-.24,1.41l-5.24,.04c0-1.61,.27-2.97,.82-4.09,.54-1.11,1.25-2.01,2.12-2.7,.87-.68,1.83-1.17,2.88-1.47,1.05-.3,2.09-.44,3.1-.44,.37,0,.87,.02,1.49,.07,.62,.05,1.27,.17,1.97,.35,.69,.19,1.41,.45,2.14,.8,.73,.35,1.38,.81,1.95,1.39,.57,.58,1.04,1.31,1.41,2.18,.37,.87,.56,1.9,.56,3.12,0,.74-.1,1.42-.3,2.04-.2,.62-.49,1.2-.87,1.75-.38,.55-.85,1.06-1.41,1.54-.55,.48-1.19,.99-1.91,1.51-.39,.3-.74,.57-1.02,.82-.29,.25-.52,.54-.71,.87-.19,.34-.32,.72-.41,1.17-.09,.45-.13,1-.13,1.67h-4.9Z"/>
  <path class="cls-2" d="M510.39,172.72s-30.09,34.47,23.93,64.39c0,0,39.19-1.03,48.15,15.67,0,0,33.42-22.79,5.71-51.68,0,0-73.95-8.99-77.79-28.38"/>
  <path class="cls-2" d="M552.57,152.13s-9.25,13.9,14.41,20.97c0,0,22.68,8.45,21.06,27.47,0,0-68.95-7.08-77.57-27.47,0,0,3.51-23.19,42.1-20.97"/>
  <path class="cls-3" d="M502.37,191.42s-48.32,26.85-7.2,61.35c0,0,21.4-18.12,38.81-15.71,0,0-36.53-18.82-31.61-45.64"/>
  <path class="cls-4" d="M510.47,172.72s-2.71,35.57,59.01,44.33c0,0,22.26,2.33,28.43,.75,0,0-2.53-9.72-9.79-17.23,0,0-73.45-8.1-77.66-27.85"/>
  <path class="cls-4" d="M530.49,154s14.57,30.98,53.57,31.87c0,0-9.35-11.08-19.52-13.15,0,0-20.46-7.19-11.28-21.24,0,0-14.89,.01-22.77,2.51"/>
  <path class="cls-4" d="M502.03,191.74s-14.73,42.07,4.25,52.69c0,0,16.23-8.99,27.69-7.52,0,0-35.34-16.93-31.95-45.17"/>
  <path class="cls-5" d="M235.3,734.7s0,0,0,0c0,0,0,0-.01,0h-.02v-.06h.06s.01,0,.02,0c0,0,0,0,.01,0,0,0,0,0,.01,.01,0,0,0,.01,0,.01h0s0,.01,0,.01c0,0,0-.01,.01-.02,0,0,0-.01,.02-.02,0,0,.01-.01,.02-.01,0,0,.02,0,.03,0h0s0,0,0,0v.08s0,0-.01,0h-.01s-.03,0-.04,0c0,0-.01,0-.02,.02,0,0,0,.01-.01,.02,0,0,0,.01,0,.02v.15h-.07v-.21Zm-.13,.07s0-.02,0-.03c0-.01,0-.02,0-.03,0,0-.01-.01-.02-.02,0,0-.02,0-.04,0-.01,0-.03,0-.03,0-.01,0-.02,.01-.02,.02,0,.01,0,.02,0,.03,0,0,0,.02,0,.03s0,.02,0,.03c0,0,0,.02,0,.03,0,0,.01,.01,.02,.02,0,0,.02,0,.03,0,.01,0,.03,0,.04,0,0,0,.02-.01,.02-.02,0,0,0-.02,0-.03,0-.01,0-.02,0-.03Zm.08,0s0,.05-.01,.07c0,.02-.02,.04-.03,.05-.01,.01-.03,.02-.05,.03-.02,0-.04,0-.06,0-.02,0-.04,0-.05,0-.02,0-.03-.02-.05-.03-.01-.01-.02-.03-.03-.05,0-.02-.01-.04-.01-.07,0-.03,0-.05,.01-.07,0-.02,.02-.04,.03-.05,.01-.01,.03-.02,.05-.03,.02,0,.03-.01,.05-.01,.02,0,.04,0,.06,.01,.02,0,.03,.01,.05,.03,.01,.01,.02,.03,.03,.05,0,.02,.01,.04,.01,.07Zm-.39,0s0-.05-.01-.06c-.01-.01-.03-.02-.05-.02-.02,0-.03,0-.05,.02-.01,.01-.02,.03-.02,.07,0,.02,0,.03,0,.05,0,.01,.01,.02,.02,.03,0,0,.01,.01,.02,.01s.01,0,.02,0c0,0,.01,0,.02,0,0,0,.01,0,.02-.01,0,0,.01-.01,.01-.03,0,0,0-.03,0-.04Zm-.2-.17s0,0,0,0c0,0,0,0-.01,0h-.02v-.07h.07s.01,0,.02,0c0,0,0,0,.01,0,0,0,0,.01,0,.02,0,0,0,.01,0,.02v.09s.02-.03,.03-.03c.01,0,.03-.01,.05-.01,.02,0,.04,0,.06,.01,.02,.01,.03,.02,.04,.04,0,.01,.02,.03,.02,.05,0,.02,0,.03,0,.05,0,.02,0,.04,0,.06,0,.02-.01,.04-.02,.05-.01,.01-.02,.03-.04,.03-.02,0-.04,.01-.06,.01-.01,0-.02,0-.03,0,0,0-.02,0-.02-.02,0,0-.01,0-.02-.01,0,0,0-.01,0-.01h0v.02s0,.02-.01,.02c0,0-.02,.01-.03,.01h-.06v-.06h.02s0,0,.01,0c0,0,0,0,0,0v-.25Zm-.17,.18s0-.02,0-.03c0-.01,0-.02-.01-.03,0,0-.01-.01-.02-.02,0,0-.02,0-.03,0-.02,0-.03,0-.04,0,0,0-.01,.01-.02,.02,0,.01,0,.02,0,.03,0,0,0,.02,0,.03s0,.02,0,.03c0,0,0,.02,0,.03,0,0,.01,.01,.02,.02,.01,0,.02,0,.04,0,.01,0,.03,0,.03,0,0,0,.02-.01,.02-.02,0,0,0-.02,.01-.03,0-.01,0-.02,0-.03Zm.08,.06s0,0,0,0c0,0,0,0,0,0h.02v.07h-.06s0,0-.01,0c0,0,0,0-.01,0,0,0,0,0-.01-.01,0,0,0-.01,0-.02h0s-.02,.02-.04,.03c-.01,.01-.03,.01-.05,.01-.02,0-.04,0-.05,0-.02,0-.03-.02-.04-.03-.01-.01-.02-.03-.03-.05,0-.02-.01-.04-.01-.07,0-.03,0-.05,.01-.07,0-.02,.02-.04,.03-.05,.01-.01,.03-.02,.05-.03,.02,0,.04-.01,.06-.01,0,0,.01,0,.02,0,0,0,.01,0,.02,0,0,0,.01,0,.02,0,0,0,.01,.01,.01,.02v-.03h.07v.2Zm-.54-.05v.03s0,.01,0,.01c0,0,0,0,.01,.01,0,0,.01,0,.02,0,0,0,.02,0,.03,0,0,0,.02,0,.03,0,0,0,.02,0,.02,0,0,0,.01,0,.02-.01,0,0,0-.02,0-.03,0,0,0-.01,0-.02,0,0,0,0-.02-.01,0,0-.01,0-.02,0,0,0-.02,0-.03,0h-.04s-.03-.02-.05-.02c-.01,0-.03-.01-.04-.02-.01,0-.02-.02-.03-.03,0-.01-.01-.03-.01-.05,0,0,0-.02,0-.02,0,0,0-.02,0-.03,0,0,0-.02,.02-.03,0,0,.02-.02,.03-.02,.01,0,.02,0,.04-.01,.01,0,.03,0,.05,0,.03,0,.05,0,.07,.01,.02,0,.03,.02,.05,.03,.01,.01,.02,.03,.03,.04,0,.01,0,.03,0,.04v.03h-.08v-.03s0-.01,0-.02c0,0,0,0-.01-.01,0,0-.01,0-.02-.01-.01,0-.02,0-.04,0,0,0-.01,0-.02,0,0,0-.01,0-.02,0,0,0-.01,0-.01,.01,0,0,0,.01,0,.02,0,0,0,.01,0,.02,0,0,0,0,.01,.01,0,0,0,0,.01,0,0,0,0,0,.01,0l.09,.02s.03,0,.04,.01c.01,0,.02,.01,.03,.02,0,0,.02,.02,.02,.03,0,.01,0,.03,0,.04,0,.02,0,.04,0,.05,0,.01-.01,.03-.02,.03,0,0-.02,.02-.03,.02-.01,0-.02,.01-.03,.01-.01,0-.02,0-.03,0,0,0-.02,0-.02,0-.03,0-.05,0-.07,0-.02,0-.04-.01-.05-.02-.01,0-.02-.02-.03-.03,0-.01-.01-.02-.01-.03v-.05h.09Z"/>
</svg>